<?xml version="1.0" standalone="no"?>
<!DOCTYPE svg PUBLIC "-//W3C//DTD SVG 20010904//EN"
 "http://www.w3.org/TR/2001/REC-SVG-20010904/DTD/svg10.dtd">
<svg version="1.0" xmlns="http://www.w3.org/2000/svg"
 width="500.000000pt" height="500.000000pt" viewBox="0 0 500.000000 500.000000"
 preserveAspectRatio="xMidYMid meet">
<metadata>
Created by potrace 1.11, written by Peter Selinger 2001-2013
</metadata>
<g transform="translate(0.000000,500.000000) scale(0.100000,-0.100000)"
fill="#000000" stroke="none">
<path d="M1017 4316 c-63 -23 -117 -75 -157 -153 -14 -26 -43 -82 -66 -123
-22 -41 -62 -115 -89 -165 -26 -49 -62 -117 -80 -150 -18 -33 -48 -89 -67
-125 -20 -36 -64 -119 -100 -185 -36 -66 -87 -160 -113 -210 -26 -49 -59 -110
-73 -135 -13 -25 -45 -83 -70 -130 -25 -47 -65 -121 -90 -165 -92 -170 -97
-183 -97 -270 0 -86 -6 -70 125 -310 15 -27 42 -79 60 -114 41 -81 91 -137
136 -151 25 -9 455 -12 1617 -12 1745 0 1619 -4 1686 63 109 108 72 305 -69
367 -31 14 -160 16 -1075 17 -1034 2 -1040 2 -1098 23 -219 79 -353 283 -346
525 7 236 175 449 391 497 31 6 448 10 1200 10 l1153 1 40 22 c21 12 53 42 70
65 26 38 30 52 30 110 0 61 -5 75 -46 152 -26 47 -63 117 -84 155 -125 236
-164 302 -198 336 -75 73 8 69 -1341 69 -987 -1 -1218 -3 -1249 -14z"/>
<path d="M1446 3105 c-110 -31 -178 -166 -143 -281 15 -48 73 -113 121 -135
39 -18 92 -19 1073 -19 718 0 1048 -3 1085 -11 184 -39 333 -190 384 -391 20
-76 14 -238 -11 -306 -56 -156 -160 -266 -304 -321 l-66 -26 -1187 -1 c-865
-2 -1196 -5 -1222 -14 -19 -6 -50 -29 -70 -50 -65 -72 -71 -166 -17 -263 15
-28 50 -92 76 -142 27 -49 69 -128 94 -175 26 -47 56 -102 66 -123 27 -51 82
-110 125 -133 34 -18 85 -19 1258 -22 816 -1 1236 1 1262 8 78 21 125 75 224
262 20 38 52 98 72 135 20 38 53 100 74 138 21 39 52 97 70 130 18 33 51 94
73 135 22 41 47 89 57 105 10 17 41 75 70 130 29 55 60 114 70 130 18 32 74
134 147 274 24 46 62 115 84 154 58 103 81 176 74 240 -6 47 -37 136 -57 163
-4 6 -22 37 -39 70 -39 74 -106 198 -132 244 -23 42 -60 77 -96 93 -36 15
-3163 18 -3215 2z"/>
</g>
</svg>
